<svg width="14" height="13" viewBox="0 0 14 13" fill="none" xmlns="http://www.w3.org/2000/svg">
<path d="M10.5627 7.89123C10.3948 8.05393 10.3177 8.28923 10.3559 8.52L10.9322 11.7093C10.9808 11.9796 10.8667 12.2531 10.6405 12.4093C10.4188 12.5714 10.1239 12.5908 9.8821 12.4612L7.01113 10.9638C6.9113 10.9106 6.80045 10.8821 6.68701 10.8789H6.51135C6.45041 10.888 6.39078 10.9074 6.33633 10.9372L3.46471 12.4417C3.32275 12.513 3.16199 12.5383 3.00447 12.513C2.62072 12.4404 2.36467 12.0748 2.42755 11.6892L3.00447 8.49991C3.04271 8.26719 2.96558 8.03059 2.79769 7.8653L0.456959 5.59652C0.261196 5.40659 0.193133 5.12138 0.282587 4.86403C0.369449 4.60734 0.591141 4.42 0.858856 4.37787L4.08052 3.9105C4.32554 3.88522 4.54075 3.73613 4.65095 3.51573L6.07056 0.605217C6.10426 0.540394 6.14769 0.480758 6.2002 0.430197L6.25854 0.384821C6.28901 0.351114 6.32401 0.32324 6.3629 0.300552L6.43356 0.274624L6.54376 0.229248H6.81666C7.06039 0.254529 7.27495 0.400379 7.38709 0.618181L8.8255 3.51573C8.92921 3.7277 9.13081 3.87485 9.36352 3.9105L12.5852 4.37787C12.8574 4.41676 13.085 4.60474 13.1751 4.86403C13.26 5.12397 13.1867 5.40919 12.9871 5.59652L10.5627 7.89123Z" fill="#FFCD6B"/>
</svg>
